<mxfile host="app.diagrams.net" modified="2024-05-10T16:09:35.298Z" agent="Mozilla/5.0 (Windows NT 10.0; Win64; x64) AppleWebKit/537.36 (KHTML, like Gecko) Chrome/123.0.0.0 Safari/537.36 OPR/109.0.0.0" version="24.3.1" etag="MOuA1GVSssTBn_U42IhA" type="github">
  <diagram name="Страница — 1" id="CgfHrMD4hFGovll1X6mX">
    <mxGraphModel>
      <root>
        <mxCell id="0" />
        <mxCell id="1" parent="0" />
      </root>
    </mxGraphModel>
  </diagram>
</mxfile>
